<svg width="37" height="27" viewBox="0 0 37 27" fill="none" xmlns="http://www.w3.org/2000/svg">
<path d="M35.5415 0.0229492H15.9639C18.7076 1.40514 20.3111 3.85955 20.3111 7.03032C20.3111 8.90844 19.5472 10.782 18.2488 12.2147C19.9441 13.629 20.9168 15.7252 20.9168 18.0878C20.9168 20.8568 19.7606 23.3227 17.6569 25.0286C17.2233 25.3799 16.7553 25.6944 16.2575 25.9769H23.4632C24.5735 25.9769 25.0277 25.5429 25.0277 24.4799V15.8355H34.1513C34.6835 15.8355 35.5759 15.6311 35.5759 14.2719V11.5534C35.5759 11.0736 35.5759 9.95312 34.1513 9.95312H25.0277V7.51248C25.0277 6.56653 25.2503 6.11651 26.5281 6.11651H35.5438C36.2091 6.11651 37.0051 5.85248 37.0051 4.58509V1.62326C37.0051 1.14569 37.0051 0.0229492 35.5438 0.0229492" fill="#FDFDFD"/>
<path d="M9.50574 26.3603C5.71593 26.3603 2.88734 25.5131 0.607033 23.6923L0.568032 23.6579C-0.0834845 23.0678 -0.16607 22.5168 0.276686 21.7591L1.85501 19.1761C1.98806 18.9511 2.35512 18.3404 3.08692 18.3404C3.49068 18.3404 3.85315 18.5401 4.12155 18.7146L4.14908 18.733C5.52323 19.7065 7.34472 20.2644 9.15016 20.2644C10.4968 20.2644 12.7541 19.8879 12.7541 17.3715C12.7541 16.0719 11.5911 15.2638 9.72368 15.2638H8.79687C7.25296 15.2638 6.73221 14.7701 6.73221 13.3053V11.8772C6.73221 10.8049 6.94785 9.81078 8.51241 9.81078H9.54474C11.2171 9.81078 12.2563 9.04392 12.2563 7.81097C12.2563 6.29561 10.4371 6.1326 9.65256 6.1326C7.98477 6.1326 6.10363 6.69741 4.74095 7.60662L4.70424 7.62958C4.4129 7.79949 4.06649 7.97398 3.68338 7.97398C2.94928 7.97398 2.60287 7.36555 2.48817 7.1635L1.07961 4.80322C0.875438 4.49555 0.324861 3.62767 1.31819 2.81718C3.8302 0.741607 7.51219 0 10.1183 0C15.6561 0 19.0973 2.6909 19.0973 7.02344C19.0973 9.09902 17.9663 11.1425 16.2641 12.3524C18.4205 13.443 19.7029 15.5278 19.7029 18.0809C19.7029 23.0288 15.608 26.3534 9.51262 26.3534" fill="#FDFDFD"/>
</svg>
